<?xml version="1.0" standalone="no"?>
<!DOCTYPE svg PUBLIC "-//W3C//DTD SVG 20010904//EN"
 "http://www.w3.org/TR/2001/REC-SVG-20010904/DTD/svg10.dtd">
<svg version="1.0" xmlns="http://www.w3.org/2000/svg"
 width="900.000000pt" height="900.000000pt" viewBox="0 0 900.000000 900.000000"
 preserveAspectRatio="xMidYMid meet">
<metadata>
Created by potrace 1.11, written by Peter Selinger 2001-2013
</metadata>
<g transform="translate(0.000000,900.000000) scale(0.100000,-0.100000)"
fill="#000000" stroke="none">
<path d="M4537 5944 c-1 -1 -33 -4 -72 -7 -152 -11 -383 -74 -495 -134 -54
-29 -55 -30 -85 -12 -36 22 -194 72 -296 94 -154 33 -272 43 -454 40 -200 -4
-196 -4 -245 -15 -19 -5 -48 -11 -65 -13 -41 -6 -150 -44 -199 -69 -116 -58
-261 -188 -536 -477 -27 -29 -195 -222 -226 -259 -10 -13 -27 -33 -38 -45 -20
-24 -173 -213 -190 -236 -9 -11 114 75 179 127 74 58 423 252 453 252 5 0 29
9 54 20 52 23 219 65 298 76 61 8 241 8 280 -1 14 -3 41 -8 60 -11 19 -3 69
-17 110 -31 343 -116 640 -441 834 -915 20 -48 36 -95 36 -104 0 -10 2 -15 5
-12 3 3 1 35 -5 70 -10 68 -13 247 -5 308 45 314 249 483 575 475 183 -4 297
-65 401 -212 34 -49 85 -171 93 -227 4 -21 8 -42 11 -46 8 -13 19 -148 19
-232 0 -85 9 -92 25 -19 65 303 269 614 501 764 77 49 238 122 293 133 12 2
33 6 47 9 127 28 311 38 441 23 316 -35 638 -187 883 -417 l49 -46 -54 75
c-273 383 -623 785 -824 947 -44 35 -109 78 -145 95 -60 29 -73 31 -170 31
-136 0 -331 -13 -420 -28 -14 -2 -56 -7 -95 -10 -38 -4 -77 -8 -85 -10 -8 -2
-42 -7 -75 -11 -33 -3 -67 -8 -76 -9 -9 -2 -40 -6 -69 -10 -29 -4 -62 -9 -74
-11 -11 -2 -38 -6 -61 -10 -22 -3 -58 -9 -80 -13 -57 -10 -62 -9 -140 28 -88
41 -188 68 -288 79 -42 5 -78 7 -80 6z"/>
<path d="M2565 5059 c-27 -3 -71 -9 -96 -13 -107 -15 -287 -90 -404 -169 -190
-129 -346 -350 -407 -577 -33 -121 -33 -355 0 -480 28 -105 104 -264 170 -350
270 -357 751 -502 1187 -358 374 123 642 443 693 828 9 74 5 232 -8 297 -6 29
-12 56 -12 60 -3 25 -50 148 -81 209 -137 272 -428 486 -732 539 -22 4 -50 9
-63 11 -43 8 -197 10 -247 3z m295 -283 c267 -72 461 -250 545 -501 51 -150
40 -357 -26 -502 -131 -285 -423 -463 -739 -448 -371 16 -667 273 -727 630 -3
17 -5 69 -5 117 1 333 252 633 592 707 107 23 268 21 360 -3z"/>
<path d="M6268 5065 c-2 -1 -32 -5 -68 -9 -119 -11 -270 -58 -378 -117 -278
-152 -461 -399 -523 -704 -15 -77 -15 -272 0 -350 61 -305 255 -562 533 -709
71 -38 223 -91 283 -100 23 -4 52 -9 65 -12 37 -7 238 -7 290 0 405 62 723
317 848 682 136 398 -3 845 -344 1103 -129 98 -317 178 -469 201 -66 10 -231
20 -237 15z m263 -294 c201 -52 375 -187 477 -371 135 -245 109 -557 -66 -780
-153 -196 -388 -304 -641 -295 -348 12 -628 233 -722 570 -20 71 -17 263 4
343 76 282 328 507 619 551 89 13 239 5 329 -18z"/>
<path d="M4377 4918 c-101 -21 -189 -94 -232 -192 -69 -157 8 -339 175 -411
69 -31 198 -28 270 6 66 31 131 94 161 157 30 65 34 170 8 238 -55 146 -225
236 -382 202z"/>
<path d="M5031 4244 c0 -11 3 -14 6 -6 3 7 2 16 -1 19 -3 4 -6 -2 -5 -13z"/>
</g>
</svg>
